<svg xmlns="http://www.w3.org/2000/svg" width="27.928" height="27.927" viewBox="0 0 27.928 27.927"><path d="M3738.715,6190.245q-.175.029-.351.053Q3738.541,6190.274,3738.715,6190.245Z" transform="translate(-3722.5 -6162.5)" fill="#d78e5b"/><path d="M3738.994,6190.2c-.055.011-.111.02-.167.029C3738.883,6190.217,3738.939,6190.208,3738.994,6190.2Z" transform="translate(-3722.5 -6162.5)" fill="#d78e5b"/><path d="M3738.053,6190.336c-.136.016-.273.029-.41.04C3737.78,6190.366,3737.917,6190.352,3738.053,6190.336Z" transform="translate(-3722.5 -6162.5)" fill="#d78e5b"/><path d="M3738.321,6190.3l-.2.025Z" transform="translate(-3722.5 -6162.5)" fill="#d78e5b"/><path d="M3739.375,6190.122l-.147.031Z" transform="translate(-3722.5 -6162.5)" fill="#d78e5b"/><path d="M3740.318,6189.888l-.119.033Z" transform="translate(-3722.5 -6162.5)" fill="#d78e5b"/><path d="M3740.032,6189.966l-.129.034Z" transform="translate(-3722.5 -6162.5)" fill="#d78e5b"/><path d="M3739.659,6190.059l-.137.031Z" transform="translate(-3722.5 -6162.5)" fill="#d78e5b"/><path d="M3737.638,6190.377l-.221.017Z" transform="translate(-3722.5 -6162.5)" fill="#d78e5b"/><path d="M3750.427,6176.463a13.964,13.964,0,1,0-13.964,13.964l.246,0v-10.87h-3v-3.5h3v-2.573c0-2.984,1.821-4.608,4.483-4.608a24.833,24.833,0,0,1,2.69.137v3.118h-1.835c-1.448,0-1.728.688-1.728,1.7v2.227h3.462l-.451,3.5h-3.011v10.334A13.971,13.971,0,0,0,3750.427,6176.463Z" transform="translate(-3722.5 -6162.5)" fill="#d78e5b"/><path d="M3737.386,6190.4c-.146.009-.292.017-.438.021C3737.095,6190.413,3737.241,6190.405,3737.386,6190.4Z" transform="translate(-3722.5 -6162.5)" fill="#d78e5b"/><path d="M3736.941,6190.418l-.232.005Z" transform="translate(-3722.5 -6162.5)" fill="#d78e5b"/></svg>