<svg xmlns="http://www.w3.org/2000/svg" width="27.92" height="27.919" viewBox="0 0 27.92 27.919"><path d="M3863.779,6179.08l4.542-2.617-4.542-2.616Z" transform="translate(-3851.56 -6162.5)" fill="#d78e5b"/><path d="M3865.519,6190.42a13.96,13.96,0,1,1,9.872-4.089A13.868,13.868,0,0,1,3865.519,6190.42Zm0-20.066a53.316,53.316,0,0,0-6.828.359,2.244,2.244,0,0,0-1.538,1.554,24.721,24.721,0,0,0,0,8.394,2.188,2.188,0,0,0,1.538,1.538,51.353,51.353,0,0,0,6.828.374,53.093,53.093,0,0,0,6.828-.36,2.185,2.185,0,0,0,1.538-1.538,23.19,23.19,0,0,0,.359-4.2,21.7,21.7,0,0,0-.359-4.211,2.186,2.186,0,0,0-1.538-1.538A51.172,51.172,0,0,0,3865.518,6170.354Z" transform="translate(-3851.56 -6162.5)" fill="#d78e5b"/></svg>