<svg xmlns="http://www.w3.org/2000/svg" width="27.92" height="27.919" viewBox="0 0 27.92 27.919"><circle cx="2.67" cy="2.67" r="2.67" transform="translate(11.289 11.29)" fill="#d78e5b"/><path d="M3908.536,6183.037c-2.147,0-2.4-.008-3.24-.047a4.416,4.416,0,0,1-1.49-.276,2.664,2.664,0,0,1-1.522-1.522,4.485,4.485,0,0,1-.275-1.488c-.04-.868-.048-1.125-.048-3.24s.008-2.372.048-3.24a4.516,4.516,0,0,1,.275-1.49,2.657,2.657,0,0,1,1.522-1.521,4.413,4.413,0,0,1,1.49-.276c.844-.038,1.1-.046,3.24-.046s2.4.008,3.24.046a4.413,4.413,0,0,1,1.488.276,2.46,2.46,0,0,1,.922.6,2.5,2.5,0,0,1,.6.921,4.448,4.448,0,0,1,.276,1.49c.039.869.047,1.127.047,3.24s-.008,2.371-.047,3.24a4.477,4.477,0,0,1-.276,1.488,2.661,2.661,0,0,1-1.522,1.522,4.416,4.416,0,0,1-1.488.276C3910.937,6183.029,3910.684,6183.037,3908.536,6183.037Zm0-10.7a4.121,4.121,0,1,0,4.12,4.121A4.125,4.125,0,0,0,3908.54,6172.339Zm4.281-1.119a.96.96,0,1,0,.959.961A.962.962,0,0,0,3912.821,6171.22Z" transform="translate(-3894.581 -6162.5)" fill="#d78e5b"/><path d="M3908.54,6190.42a13.96,13.96,0,1,1,9.872-4.089A13.867,13.867,0,0,1,3908.54,6190.42Zm0-21.975c-2.218,0-2.469.011-3.3.049a5.917,5.917,0,0,0-1.947.372,4.1,4.1,0,0,0-2.344,2.346,5.89,5.89,0,0,0-.373,1.945c-.04.839-.048,1.094-.048,3.306s.009,2.468.048,3.308a5.894,5.894,0,0,0,.373,1.945,4.106,4.106,0,0,0,2.344,2.346,5.987,5.987,0,0,0,1.947.373c.856.037,1.114.048,3.306.048s2.449-.011,3.3-.048a5.985,5.985,0,0,0,1.947-.373,4.121,4.121,0,0,0,2.346-2.346,5.938,5.938,0,0,0,.373-1.945c.039-.86.048-1.146.048-3.308s-.009-2.446-.048-3.306a5.938,5.938,0,0,0-.373-1.945,4.1,4.1,0,0,0-2.346-2.346,5.912,5.912,0,0,0-1.947-.372C3911.006,6168.456,3910.754,6168.445,3908.535,6168.445Z" transform="translate(-3894.581 -6162.5)" fill="#d78e5b"/></svg>