<svg xmlns="http://www.w3.org/2000/svg" width="13.768" height="12.164" viewBox="0 0 13.768 12.164"><g transform="translate(-4434.232 -3382)"><path d="M4441.116,3394.164a.4.4,0,0,1-.266-.1l-.018-.016c-.611-.533-1.2-1.034-1.67-1.437l-.008-.007a31.1,31.1,0,0,1-3.517-3.284,5.11,5.11,0,0,1-1.406-3.354,4.173,4.173,0,0,1,1-2.772,3.466,3.466,0,0,1,5.537.4,5.187,5.187,0,0,1,.344.555,5.443,5.443,0,0,1,.342-.555,3.468,3.468,0,0,1,5.538-.4,4.173,4.173,0,0,1,1,2.772,5.108,5.108,0,0,1-1.409,3.354,31.033,31.033,0,0,1-3.521,3.289c-.575.49-1.1.935-1.671,1.438l-.018.016A.4.4,0,0,1,4441.116,3394.164Zm-3.227-11.357a2.7,2.7,0,0,0-2.048.921,3.376,3.376,0,0,0-.8,2.239c0,2.071,1.849,3.646,4.647,6.03l.05.042c.443.378.9.769,1.381,1.186.51-.444,1-.861,1.43-1.228,2.8-2.384,4.647-3.958,4.647-6.03a3.377,3.377,0,0,0-.8-2.239,2.7,2.7,0,0,0-2.047-.921,2.725,2.725,0,0,0-2.227,1.252,4.8,4.8,0,0,0-.617,1.228.4.4,0,0,1-.767,0,4.755,4.755,0,0,0-.617-1.228A2.724,2.724,0,0,0,4437.889,3382.807Z" fill="#490d67"/></g></svg>