<svg xmlns="http://www.w3.org/2000/svg" width="136.5" height="34.527" viewBox="0 0 136.5 34.527"><g transform="translate(-3737.5 -3409)"><path d="M3755.5,3409c.617,1.727,1.412,3.264,2,5-1.159.074-2.341.469-3.5.5C3754.583,3412.7,3754.907,3410.793,3755.5,3409Z" fill="#490d67"/><path d="M3753.5,3415.5c1.446,0,2.553,0,4,0,.392,1.254,1.1,2.747,1.5,4-1.027.08-1.97-.05-3,0-.1-.291-.393-.711-.5-1-.091.3.088.7,0,1-1.071.053-2.43-.067-3.5,0C3752.449,3418.137,3753.07,3416.868,3753.5,3415.5Z" fill="#490d67"/><path d="M3751.5,3421c1.051-.019,2.449,0,3.5,0-.43,1.349-1.049,2.657-1.5,4-3.491.19-7.011.277-10.5.5a1.652,1.652,0,0,1-1-.5c-1.435-1.04-3.068-1.953-4.5-3,4.593,0,9.407,0,14,0C3751.637,3421.576,3751.368,3421.426,3751.5,3421Z" fill="#490d67"/><path d="M3756.5,3421c1.045-.005,1.955-.009,3,0,.139.428.354.574.5,1,4.584,0,8.915,0,13.5,0-.8.6-1.695,1.416-2.5,2-.243.215-.2-.022-.5,0-4.262.181-8.739.321-13,.5C3757.083,3423.215,3756.894,3422.292,3756.5,3421Z" fill="#490d67"/><path d="M3774.5,3424.5c1.662-1.928,4.024-2.439,6.5-2.5a23.531,23.531,0,0,1,7.5,1c-.408,1.367-.559,2.643-1,4a11.878,11.878,0,0,0-7-1,2.052,2.052,0,0,0-1.5,2c-.026.925.781,1.131,1.5,1.5a16.784,16.784,0,0,1,5,3,5.4,5.4,0,0,1,1.5,4.5,6.835,6.835,0,0,1-2.5,4.5,10.011,10.011,0,0,1-6,2,21.9,21.9,0,0,1-8-1c.394-1.435.605-3.065,1-4.5a10.8,10.8,0,0,0,7.5,1,2.935,2.935,0,0,0,2-2,1.4,1.4,0,0,0-.5-1.5c-1.72-1.664-4.342-1.753-6-3.5A5.9,5.9,0,0,1,3774.5,3424.5Z" fill="#490d67"/><path d="M3795.5,3425a3.284,3.284,0,0,1,3-2.5c1.06-.1,1.936.017,3,0-1.332,6.346-2.654,12.658-4,19a2.083,2.083,0,0,1-2,1.5c-1.367.027-2.633-.01-4,0C3792.771,3437.042,3794.227,3430.955,3795.5,3425Z" fill="#490d67"/><path d="M3808,3422.5h8.5c.127,2.408.391,4.59.5,7a58.845,58.845,0,0,1,0,7c.969-2.68,2.33-4.905,3.5-7.5.97-2.141,2.061-4.343,3-6.5,2.973-.057,6.029.015,9,0-1.487,6.867-3.011,13.632-4.5,20.5-1.709-.006-3.791,0-5.5,0q1.482-7.007,3-14c.188-1.015.942-1.965,1-3-2.663,5.683-5.331,11.319-8,17-1.7.009-3.8-.006-5.5,0-.29-5.688-.2-11.315-.5-17-.154.128-.485.3-.5.5-.9,5.567-2.364,10.978-3.5,16.5-1.7.007-3.3,0-5,0C3804.964,3436.132,3806.54,3429.369,3808,3422.5Z" fill="#490d67"/><path d="M3834.5,3422.5c1.823,0,3.675-.006,5.5,0,.324,3.005.681,5.994,1,9a39.216,39.216,0,0,1,.5,7.5,36.426,36.426,0,0,1,2.5-6c1.856-3.553,3.654-6.942,5.5-10.5,4.136.006,8.364-.034,12.5,0,1.159,3.875,2.339,7.626,3.5,11.5.33,1.073.256,2.407.5,3.5.263-.892.285-2.1.5-3,.653-3.234,1.324-6.27,2-9.5a3.5,3.5,0,0,1,1.5-2.5c1.247-.546,2.683.082,4,0-1.441,6.873-2.54,13.632-4,20.5-2.263,0-4.737,0-7,0-1.216-3.975-2.3-8.022-3.5-12-.312-.976-.773-2-1-3-.3,1.143-.241,2.346-.5,3.5-.79,3.816-1.687,7.688-2.5,11.5-1.692,0-3.31,0-5,0,1.4-6.609,3.1-13.394,4.5-20-3.687,6.6-7.329,13.394-11,20-2.215,0-4.784.009-7,0C3836.109,3436.131,3835.4,3429.365,3834.5,3422.5Z" fill="#490d67"/><path d="M3743,3426c1.563,0,2.938-.006,4.5,0,.3-.042.776.34,1,.5,1.245.927,2.259,1.566,3.5,2.5-.118.352.115.646,0,1-1.024.032-2.478.448-3.5.5C3746.619,3429.017,3744.9,3427.456,3743,3426Z" fill="#490d67"/><path d="M3763,3426c1.671,0,3.329,0,5,0-1.435,1.072-2.559,1.934-4,3-.284.2-.625.531-1,.5-1.228.049-2.772.451-4,.5-.078-.247.076-.753,0-1C3760.408,3428.014,3761.618,3427.022,3763,3426Z" fill="#490d67"/><path d="M3748.5,3431.5c1.054-.048,1.946.013,3,0-.424,1.333-1.024,2.683-1.5,4a3.633,3.633,0,0,0,1-.5c1.508-1.115,2.993-2.383,4.5-3.5,1.574,1.125,2.951,2.339,4.5,3.5-4.447.238-8.552.312-13,.5C3747.449,3434.059,3748.073,3432.946,3748.5,3431.5Z" fill="#490d67"/><path d="M3759.5,3431.5c1.053.006,2.446-.029,3.5,0,.355,1.189.648,2.311,1,3.5-1.035,0-1.965.015-3,0C3760.613,3433.778,3759.88,3432.723,3759.5,3431.5Z" fill="#490d67"/><path d="M3746.5,3436.5c2.389,0,5.111,0,7.5,0-3.127,2.265-6.366,4.748-9.5,7C3745.236,3441.233,3745.76,3438.764,3746.5,3436.5Z" fill="#490d67"/><path d="M3757.5,3436.5c2.381-.008,4.617-.006,7,0,.729,2.265,1.3,4.728,2,7C3763.384,3441.24,3760.6,3438.776,3757.5,3436.5Z" fill="#490d67"/><path d="M3787,3438c1.656,0,3.344,0,5,0-.244,1.041-.709,2.47-1,3.5a1.912,1.912,0,0,1-2,1.5c-.962.007-2.039,0-3,0C3786.333,3441.4,3786.667,3439.6,3787,3438Z" fill="#490d67"/><path d="M3799.5,3440a2.463,2.463,0,0,1,2-2c1.136-.046,2.362.013,3.5,0-.343,1.6-.642,3.4-1,5-1.648-.006-3.352,0-5,0C3799.215,3441.968,3799.281,3441.031,3799.5,3440Z" fill="#490d67"/><path d="M3830,3438c1.665-.044,3.333,0,5,0-.413,1.4-.263,3.506-1.5,4.5-1.243,1.049-3.023.394-4.5.5C3829.319,3441.4,3829.705,3439.6,3830,3438Z" fill="#490d67"/></g></svg>