<svg id="united-states" xmlns="http://www.w3.org/2000/svg" width="16.519" height="16.5" viewBox="0 0 16.519 16.5">
  <circle id="Ellipse_25" data-name="Ellipse 25" cx="8.25" cy="8.25" r="8.25" transform="translate(0.019 0)" fill="#f0f0f0"/>
  <g id="Group_348" data-name="Group 348" transform="translate(-4526.981 -3380)">
    <path id="Path_1142" data-name="Path 1142" d="M4535,3388h8.5a7.266,7.266,0,0,0-.5-2h-8Z" fill="#d80027"/>
    <path id="Path_1143" data-name="Path 1143" d="M4535,3384h7.5a10.179,10.179,0,0,0-2-2.5H4535Z" fill="#d80027"/>
    <path id="Path_1144" data-name="Path 1144" d="M4535,3396.5a9.359,9.359,0,0,0,5.5-2H4530A7.941,7.941,0,0,0,4535,3396.5Z" fill="#d80027"/>
    <path id="Path_1145" data-name="Path 1145" d="M4528,3392.5h14.5a6.437,6.437,0,0,0,.5-2h-16A7.374,7.374,0,0,0,4528,3392.5Z" fill="#d80027"/>
  </g>
  <path id="Path_1146" data-name="Path 1146" d="M4535,3388h-8c0-.123-.005-.242-.01-.347a3.855,3.855,0,0,1,.01-.654h.5l.5.5-.5-1,1-.5h-1v-.5a1.279,1.279,0,0,0,0-.484v-.006a1.16,1.16,0,0,1,0-.509l.5.5v-.5a.427.427,0,0,0,0-.246v-.005h0a.4.4,0,0,1,0-.249l.5-.5h-.5a3.578,3.578,0,0,1,1.211-.975,6.112,6.112,0,0,0,.79-.525l-.5.5,1-.5.5.5-.5-1,1-.5h-1a8.26,8.26,0,0,1,4.5-1v8Zm-1.5-1h0l.5.5-.5-1,1-.5h-1v-1l-.5,1h-1l1,.5-.5,1,1-.5Zm-3,0h0l.5.5-.5-1,1-.5h-1v-1l-.5,1h-1l1,.5-.5,1,1-.5Zm3-2.5h0l.5.5-.5-1,1-.5h-1v-1l-.5,1h-1l1,.5-.5,1,1-.5Zm-3,0h0l.5.5-.5-1,1-.5h-1v-1l-.5,1h-1l1,.5-.5,1,1-.5Zm3-2.5h0l.5.5-.5-1,1-.5h-1v-.5l-.5.5h-1l1,.5-.5,1,1-.5Z" transform="translate(-4526.981 -3380)" fill="#0052b4"/>
</svg>
