<svg xmlns="http://www.w3.org/2000/svg" width="105.902" height="57.346" viewBox="0 0 105.902 57.346"><defs><style>.a{fill:#8dbe4a;}</style></defs><g transform="translate(-3788.5 -4781.91)"><path class="a" d="M3841.451,4839.256c-12.444,0-25.234-4.565-36.99-13.2a78.889,78.889,0,0,1-14.143-13.171l-1.818-2.3,1.818-2.3a79.165,79.165,0,0,1,14.142-13.171c11.757-8.637,24.548-13.2,36.991-13.2s25.233,4.565,36.99,13.2a79.165,79.165,0,0,1,14.142,13.171l1.819,2.3-1.819,2.3a79.047,79.047,0,0,1-14.142,13.171C3866.685,4834.691,3853.894,4839.256,3841.451,4839.256Zm-24.037-34.473h0l4.585.772a20.133,20.133,0,1,0,5.734-9.632l-3.076-3.467a64.563,64.563,0,0,0-15.635,8.511,77.6,77.6,0,0,0-10.858,9.616,77.573,77.573,0,0,0,10.858,9.615,64.518,64.518,0,0,0,15.635,8.511,24.72,24.72,0,0,1-7.243-23.926Zm40.831-12.327h0a24.676,24.676,0,0,1,0,36.252,64.546,64.546,0,0,0,15.635-8.511,77.726,77.726,0,0,0,10.858-9.615,77.749,77.749,0,0,0-10.858-9.618A64.581,64.581,0,0,0,3858.245,4792.456Z"/><path class="a" d="M3828.668,4806.678a13.384,13.384,0,1,0,3.525-5.728l6.591,7.43Z"/></g></svg>