<svg xmlns="http://www.w3.org/2000/svg" width="27.921" height="27.919" viewBox="0 0 27.921 27.919"><path d="M3779.48,6190.42a13.96,13.96,0,1,1,9.872-4.089A13.871,13.871,0,0,1,3779.48,6190.42Zm1.227-17.042h-3.4c.043.941,0,10.14,0,10.232h3.4V6177.9a2.252,2.252,0,0,1,.112-.83,1.859,1.859,0,0,1,1.743-1.245c1.425,0,1.724,1.259,1.724,2.315v5.474h3.4v-5.867a4.98,4.98,0,0,0-1.119-3.482,3.682,3.682,0,0,0-2.8-1.125,3.356,3.356,0,0,0-3.064,1.69Zm-8.688,0v10.229h3.4V6173.38Zm1.726-4.936a1.773,1.773,0,1,0-.043,3.536h.022a1.773,1.773,0,1,0,.022-3.536Z" transform="translate(-3765.519 -6162.5)" fill="#d78e5b"/></svg>