<svg xmlns="http://www.w3.org/2000/svg" width="27.92" height="27.919" viewBox="0 0 27.92 27.919"><path d="M3822.5,6190.42a13.96,13.96,0,1,1,9.87-4.089A13.871,13.871,0,0,1,3822.5,6190.42Zm-7.648-8.939h0a9.1,9.1,0,0,0,4.914,1.439,8.736,8.736,0,0,0,6.769-2.971,9.436,9.436,0,0,0,2.349-6.148c0-.14,0-.279-.009-.415a6.457,6.457,0,0,0,1.6-1.659,6.419,6.419,0,0,1-1.839.5,3.215,3.215,0,0,0,1.409-1.773,6.407,6.407,0,0,1-2.035.777,3.209,3.209,0,0,0-5.462,2.924,9.125,9.125,0,0,1-6.606-3.348,3.208,3.208,0,0,0,.993,4.278,3.215,3.215,0,0,1-1.451-.4.361.361,0,0,0,0,.041,3.21,3.21,0,0,0,2.571,3.141,3.146,3.146,0,0,1-.845.114,3.376,3.376,0,0,1-.6-.058,3.2,3.2,0,0,0,2.994,2.226,6.4,6.4,0,0,1-3.982,1.371A6.639,6.639,0,0,1,3814.853,6181.481Z" transform="translate(-3808.54 -6162.5)" fill="#d78e5b"/></svg>