<svg xmlns="http://www.w3.org/2000/svg" width="17" height="16.52" viewBox="0 0 17 16.52"><ellipse cx="8.5" cy="8.25" rx="8.5" ry="8.25" transform="translate(0 0.01)" fill="#fff"/><path d="M4519.5,3385.5s0,0,0,0a8.743,8.743,0,0,0-7.5-5.5c1.333.7,2.16,2.889,2.5,5.5a21.916,21.916,0,0,1,0,5.5c-.338,2.625-1.162,4.8-2.5,5.5a8.718,8.718,0,0,0,7.5-5.5c0-.008,0,.008,0,0a9.526,9.526,0,0,0,.5-3A6.535,6.535,0,0,0,4519.5,3385.5Z" transform="translate(-4503 -3379.99)" fill="#e12a28"/><path d="M4514.5,3385.5c-.334-2.611-.693-4.8-2-5.5-.252-.022-.741,0-1,0a8.418,8.418,0,0,0-8,5.5h0a6.647,6.647,0,0,0-.5,2.5,9.7,9.7,0,0,0,.5,3c0,.008,0-.008,0,0a8.4,8.4,0,0,0,8,5.5c.258,0,.747.022,1,0,1.312-.7,1.668-2.875,2-5.5A22.29,22.29,0,0,0,4514.5,3385.5Z" transform="translate(-4503 -3379.99)" fill="#ed3432"/><path d="M4511.5,3384l1,3h3l-2.5,2,1,3-2.5-2-2.5,2,1-3-3-2h3.5Z" transform="translate(-4503 -3379.99)" fill="#fdce0c"/></svg>